<svg width="45" height="36" viewBox="0 0 45 36" fill="none" xmlns="http://www.w3.org/2000/svg">
<mask id="path-1-inside-1_1340_281" fill="white">
<path fill-rule="evenodd" clip-rule="evenodd" d="M22.6156 36C19.9893 36 18.1705 35.5339 16.9947 34.661C16.0692 33.974 15.6131 33.0902 15.4454 32.1655C12.0113 32.5576 9.81925 31.6857 8.52048 30.1845C7.39184 28.8798 7.0647 27.2386 7.03637 25.9591C1.36069 24.8991 -0.40695 21.4418 0.0757113 19.2627C1.28258 13.7825 4.93943 8.9806 9.06398 5.56158C13.1651 2.162 17.8892 -3.00218e-07 21.3544 0C21.64 4.97541e-05 21.9041 0.15036 22.0482 0.394728C22.1923 0.639252 22.1945 0.941494 22.0541 1.18807C20.0271 4.74659 18.7345 10.5548 17.962 16.4009C17.1936 22.2157 16.9544 27.9439 16.9743 31.2563V31.2609L16.9774 31.4227C17.009 32.2231 17.2832 32.8852 17.9581 33.3862C18.7268 33.9569 20.1307 34.4071 22.6156 34.4071C25.1046 34.4071 26.4359 33.9552 27.1386 33.4006C27.794 32.8834 28.0259 32.1748 28.0259 31.2609V31.2563L28.0267 30.6072C28.0139 27.2273 27.7585 21.8522 27.0382 16.4009C26.2898 10.7374 25.0535 5.10938 23.134 1.52797L22.9461 1.18807C22.8056 0.941493 22.8079 0.639255 22.9519 0.394728C23.096 0.150292 23.3605 1.73801e-07 23.6461 1.9855e-07C27.1113 5.98709e-05 31.8351 2.16208 35.9362 5.56159C40.0607 8.98061 43.7176 13.7825 44.9244 19.2627L44.946 19.3701C45.3485 21.5537 43.5472 24.9165 37.9634 25.9591C37.9351 27.2386 37.6087 28.8798 36.4801 30.1845C35.1825 31.6843 32.9931 32.556 29.5645 32.1667C29.4194 33.0693 29.0196 33.9525 28.1401 34.6466C27.0136 35.5356 25.2378 36 22.6156 36ZM37.8582 24.358C42.8384 23.3714 43.5646 20.5531 43.3544 19.6042C42.2464 14.5717 38.8509 10.0545 34.9049 6.7835C32.4747 4.76905 29.896 3.27649 27.5907 2.42126C31.2455 5.36875 33.5977 9.252 35.1211 13.0303C36.8875 17.4113 37.5618 21.7033 37.8582 24.358ZM7.14193 24.358C7.43836 21.7033 8.11264 17.4113 9.87903 13.0303C11.4024 9.2521 13.7544 5.36871 17.4091 2.42126C15.1039 3.27653 12.5253 4.76915 10.0952 6.78349C6.14929 10.0545 2.75412 14.5709 1.64616 19.6034C1.43597 20.5523 2.16183 23.3714 7.14193 24.358ZM9.7405 29.1477C10.5964 30.137 12.2199 30.956 15.3662 30.5718C15.3805 27.1279 15.6407 21.7012 16.3684 16.194C16.9937 11.4615 17.9744 6.58747 19.4826 2.85993C15.4948 5.65473 12.9759 9.64289 11.3718 13.6214C9.48881 18.2915 8.89332 22.8835 8.65391 25.3489C8.58147 26.4889 8.78069 28.0381 9.7405 29.1477ZM29.6336 30.5718C32.7802 30.9561 34.4037 30.137 35.2597 29.1477C36.2195 28.0381 36.4183 26.4889 36.3459 25.3489C36.1064 22.8835 35.5117 18.2915 33.6288 13.6214C32.0246 9.64284 29.505 5.65512 25.5172 2.86032C27.0253 6.58785 28.0068 11.4615 28.6322 16.194C29.3599 21.7012 29.6193 27.1279 29.6336 30.5718Z"/>
</mask>
<path fill-rule="evenodd" clip-rule="evenodd" d="M22.6156 36C19.9893 36 18.1705 35.5339 16.9947 34.661C16.0692 33.974 15.6131 33.0902 15.4454 32.1655C12.0113 32.5576 9.81925 31.6857 8.52048 30.1845C7.39184 28.8798 7.0647 27.2386 7.03637 25.9591C1.36069 24.8991 -0.40695 21.4418 0.0757113 19.2627C1.28258 13.7825 4.93943 8.9806 9.06398 5.56158C13.1651 2.162 17.8892 -3.00218e-07 21.3544 0C21.64 4.97541e-05 21.9041 0.15036 22.0482 0.394728C22.1923 0.639252 22.1945 0.941494 22.0541 1.18807C20.0271 4.74659 18.7345 10.5548 17.962 16.4009C17.1936 22.2157 16.9544 27.9439 16.9743 31.2563V31.2609L16.9774 31.4227C17.009 32.2231 17.2832 32.8852 17.9581 33.3862C18.7268 33.9569 20.1307 34.4071 22.6156 34.4071C25.1046 34.4071 26.4359 33.9552 27.1386 33.4006C27.794 32.8834 28.0259 32.1748 28.0259 31.2609V31.2563L28.0267 30.6072C28.0139 27.2273 27.7585 21.8522 27.0382 16.4009C26.2898 10.7374 25.0535 5.10938 23.134 1.52797L22.9461 1.18807C22.8056 0.941493 22.8079 0.639255 22.9519 0.394728C23.096 0.150292 23.3605 1.73801e-07 23.6461 1.9855e-07C27.1113 5.98709e-05 31.8351 2.16208 35.9362 5.56159C40.0607 8.98061 43.7176 13.7825 44.9244 19.2627L44.946 19.3701C45.3485 21.5537 43.5472 24.9165 37.9634 25.9591C37.9351 27.2386 37.6087 28.8798 36.4801 30.1845C35.1825 31.6843 32.9931 32.556 29.5645 32.1667C29.4194 33.0693 29.0196 33.9525 28.1401 34.6466C27.0136 35.5356 25.2378 36 22.6156 36ZM37.8582 24.358C42.8384 23.3714 43.5646 20.5531 43.3544 19.6042C42.2464 14.5717 38.8509 10.0545 34.9049 6.7835C32.4747 4.76905 29.896 3.27649 27.5907 2.42126C31.2455 5.36875 33.5977 9.252 35.1211 13.0303C36.8875 17.4113 37.5618 21.7033 37.8582 24.358ZM7.14193 24.358C7.43836 21.7033 8.11264 17.4113 9.87903 13.0303C11.4024 9.2521 13.7544 5.36871 17.4091 2.42126C15.1039 3.27653 12.5253 4.76915 10.0952 6.78349C6.14929 10.0545 2.75412 14.5709 1.64616 19.6034C1.43597 20.5523 2.16183 23.3714 7.14193 24.358ZM9.7405 29.1477C10.5964 30.137 12.2199 30.956 15.3662 30.5718C15.3805 27.1279 15.6407 21.7012 16.3684 16.194C16.9937 11.4615 17.9744 6.58747 19.4826 2.85993C15.4948 5.65473 12.9759 9.64289 11.3718 13.6214C9.48881 18.2915 8.89332 22.8835 8.65391 25.3489C8.58147 26.4889 8.78069 28.0381 9.7405 29.1477ZM29.6336 30.5718C32.7802 30.9561 34.4037 30.137 35.2597 29.1477C36.2195 28.0381 36.4183 26.4889 36.3459 25.3489C36.1064 22.8835 35.5117 18.2915 33.6288 13.6214C32.0246 9.64284 29.505 5.65512 25.5172 2.86032C27.0253 6.58785 28.0068 11.4615 28.6322 16.194C29.3599 21.7012 29.6193 27.1279 29.6336 30.5718Z" fill="white"/>
<path d="M22.6156 36L22.6156 42L22.6157 42L22.6156 36ZM16.9947 34.661L13.4183 39.4786L13.4184 39.4788L16.9947 34.661ZM15.4454 32.1655L21.3492 31.0952L20.3469 25.5669L14.7648 26.2042L15.4454 32.1655ZM8.52048 30.1845L3.98283 34.11L3.98293 34.1101L8.52048 30.1845ZM7.03637 25.9591L13.0349 25.8263L12.9271 20.9555L8.13789 20.0611L7.03637 25.9591ZM0.0757113 19.2627L5.93373 20.5603L5.9353 20.5532L0.0757113 19.2627ZM9.06398 5.56158L5.23488 0.942283L5.23486 0.942296L9.06398 5.56158ZM21.3544 0L21.3555 -6L21.3544 -6L21.3544 0ZM22.0482 0.394728L27.2179 -2.65073L27.2168 -2.65246L22.0482 0.394728ZM22.0541 1.18807L27.2676 4.15779L27.2679 4.15735L22.0541 1.18807ZM17.962 16.4009L12.0137 15.6149L12.0137 15.6149L17.962 16.4009ZM16.9743 31.2563H22.9743V31.2382L22.9742 31.2202L16.9743 31.2563ZM16.9743 31.2609H10.9743V31.3191L10.9754 31.3773L16.9743 31.2609ZM16.9774 31.4227L10.9786 31.5391L10.9797 31.5993L10.9821 31.6595L16.9774 31.4227ZM17.9581 33.3862L14.3816 38.2038L14.3817 38.2039L17.9581 33.3862ZM22.6156 34.4071L22.6156 40.4071L22.6157 40.4071L22.6156 34.4071ZM27.1386 33.4006L30.8555 38.1107L30.8557 38.1105L27.1386 33.4006ZM28.0259 31.2609L34.0259 31.2609V31.2609H28.0259ZM28.0259 31.2563L22.0259 31.249V31.2563H28.0259ZM28.0267 30.6072L34.0267 30.6144L34.0267 30.5995L34.0266 30.5846L28.0267 30.6072ZM27.0382 16.4009L32.9865 15.6149L32.9865 15.6149L27.0382 16.4009ZM23.134 1.52797L28.4224 -1.30631L28.4037 -1.34113L28.3846 -1.3757L23.134 1.52797ZM22.9461 1.18807L28.1967 -1.71559L28.1784 -1.74854L28.1598 -1.78126L22.9461 1.18807ZM22.9519 0.394728L17.7831 -2.65211L17.7823 -2.65074L22.9519 0.394728ZM23.6461 1.9855e-07L23.6462 -6L23.6461 -6L23.6461 1.9855e-07ZM35.9362 5.56159L39.7653 0.942299L39.7653 0.942276L35.9362 5.56159ZM44.9244 19.2627L50.8067 18.0799L50.7959 18.026L50.784 17.9723L44.9244 19.2627ZM44.946 19.3701L50.8467 18.2826L50.8379 18.2349L50.8283 18.1873L44.946 19.3701ZM37.9634 25.9591L36.8621 20.0611L32.0727 20.9554L31.9649 25.8263L37.9634 25.9591ZM36.4801 30.1845L41.0177 34.11L41.0178 34.1099L36.4801 30.1845ZM29.5645 32.1667L30.2415 26.205L24.5502 25.5587L23.6407 31.2139L29.5645 32.1667ZM28.1401 34.6466L31.857 39.3566L31.8572 39.3565L28.1401 34.6466ZM37.8582 24.358L31.8953 25.0239L32.6198 31.5124L39.0242 30.2437L37.8582 24.358ZM43.3544 19.6042L37.4947 20.8943L37.4964 20.9017L43.3544 19.6042ZM34.9049 6.7835L38.734 2.16421L38.734 2.16419L34.9049 6.7835ZM27.5907 2.42126L29.6776 -3.2041L23.8241 7.0917L27.5907 2.42126ZM35.1211 13.0303L40.6858 10.7866L40.6858 10.7866L35.1211 13.0303ZM7.14193 24.358L5.97588 30.2436L12.3803 31.5125L13.1049 25.0239L7.14193 24.358ZM9.87903 13.0303L4.31433 10.7866L4.31432 10.7866L9.87903 13.0303ZM17.4091 2.42126L21.1757 7.09163L15.322 -3.20405L17.4091 2.42126ZM10.0952 6.78349L6.26614 2.16419L6.26613 2.1642L10.0952 6.78349ZM1.64616 19.6034L7.50418 20.901L7.50582 20.8935L1.64616 19.6034ZM9.7405 29.1477L5.20277 33.0731L5.20289 33.0732L9.7405 29.1477ZM15.3662 30.5718L16.0934 36.5276L21.3441 35.8865L21.3661 30.5968L15.3662 30.5718ZM16.3684 16.194L10.4201 15.408L10.4201 15.408L16.3684 16.194ZM19.4826 2.85993L25.0446 5.11038L32.6549 -13.6985L16.0391 -2.05352L19.4826 2.85993ZM11.3718 13.6214L5.80708 11.3777L5.80707 11.3778L11.3718 13.6214ZM8.65391 25.3489L2.682 24.769L2.67233 24.8686L2.66598 24.9684L8.65391 25.3489ZM29.6336 30.5718L23.6336 30.5968L23.6557 35.8863L28.9062 36.5275L29.6336 30.5718ZM35.2597 29.1477L39.7972 33.0733L39.7973 33.0732L35.2597 29.1477ZM36.3459 25.3489L42.3338 24.9684L42.3274 24.8686L42.3178 24.769L36.3459 25.3489ZM33.6288 13.6214L39.1935 11.3778L39.1935 11.3777L33.6288 13.6214ZM25.5172 2.86032L28.9607 -2.05317L12.3452 -13.6977L19.9552 5.11073L25.5172 2.86032ZM28.6322 16.194L34.5804 15.408L34.5804 15.408L28.6322 16.194ZM22.6156 36L22.6156 30C21.6356 30 21.0214 29.9108 20.676 29.827C20.3392 29.7453 20.3745 29.6975 20.5709 29.8433L16.9947 34.661L13.4184 39.4788C16.1102 41.4769 19.4692 42 22.6156 42L22.6156 36ZM16.9947 34.661L20.5711 29.8434C20.7357 29.9656 20.9329 30.166 21.0957 30.4404C21.2529 30.7052 21.3216 30.9432 21.3492 31.0952L15.4454 32.1655L9.54167 33.2358C9.94936 35.4845 11.1334 37.7824 13.4183 39.4786L16.9947 34.661ZM15.4454 32.1655L14.7648 26.2042C13.6708 26.3291 13.1364 26.2096 12.9741 26.1588C12.8611 26.1234 12.9517 26.1359 13.058 26.2588L8.52048 30.1845L3.98293 34.1101C6.95792 37.5488 11.38 38.6686 16.126 38.1268L15.4454 32.1655ZM8.52048 30.1845L13.0581 26.259C13.1292 26.3411 13.1255 26.3787 13.0988 26.2923C13.0853 26.2488 13.0697 26.1845 13.0572 26.0993C13.0446 26.0142 13.037 25.9214 13.0349 25.8263L7.03637 25.9591L1.03784 26.0919C1.08302 28.1328 1.59763 31.3528 3.98283 34.11L8.52048 30.1845ZM7.03637 25.9591L8.13789 20.0611C6.33573 19.7245 5.81382 19.1393 5.79664 19.1194C5.72901 19.0407 6.16575 19.5128 5.93373 20.5603L0.0757113 19.2627L-5.78231 17.9652C-7.29209 24.7814 -1.56758 30.456 5.93485 31.8571L7.03637 25.9591ZM0.0757113 19.2627L5.9353 20.5532C6.76776 16.7731 9.43455 13.0478 12.8931 10.1809L9.06398 5.56158L5.23486 0.942296C0.444305 4.91339 -4.20259 10.7919 -5.78388 17.9723L0.0757113 19.2627ZM9.06398 5.56158L12.8931 10.1809C16.4995 7.19142 19.8921 6 21.3544 6L21.3544 0L21.3544 -6C15.8864 -6 9.83076 -2.86741 5.23488 0.942283L9.06398 5.56158ZM21.3544 0L21.3534 6C19.5322 5.99968 17.8227 5.04153 16.8796 3.44192L22.0482 0.394728L27.2168 -2.65246C25.9856 -4.74081 23.7478 -5.99958 21.3555 -6L21.3544 0ZM22.0482 0.394728L16.8786 3.44019C15.9319 1.8333 15.9164 -0.158915 16.8403 -1.7812L22.0541 1.18807L27.2679 4.15735C28.4726 2.0419 28.4526 -0.554793 27.2179 -2.65073L22.0482 0.394728ZM22.0541 1.18807L16.8406 -1.78164C14.1885 2.87424 12.7941 9.70871 12.0137 15.6149L17.962 16.4009L23.9103 17.1869C24.6748 11.4009 25.8657 6.61893 27.2676 4.15779L22.0541 1.18807ZM17.962 16.4009L12.0137 15.6149C11.2061 21.7267 10.953 27.7309 10.9744 31.2923L16.9743 31.2563L22.9742 31.2202C22.9558 28.1569 23.1812 22.7047 23.9103 17.1869L17.962 16.4009ZM16.9743 31.2563H10.9743V31.2609H16.9743H22.9743V31.2563H16.9743ZM16.9743 31.2609L10.9754 31.3773L10.9786 31.5391L16.9774 31.4227L22.9763 31.3063L22.9732 31.1445L16.9743 31.2609ZM16.9774 31.4227L10.9821 31.6595C11.0708 33.9049 11.9759 36.4179 14.3816 38.2038L17.9581 33.3862L21.5346 28.5687C21.937 28.8674 22.3519 29.3265 22.6401 29.9296C22.912 30.4986 22.9643 30.9714 22.9727 31.186L16.9774 31.4227ZM17.9581 33.3862L14.3817 38.2039C16.6662 39.8997 19.6101 40.4071 22.6156 40.4071L22.6156 34.4071L22.6156 28.4071C21.7148 28.4071 21.2376 28.3234 21.0583 28.2799C20.8788 28.2364 21.1247 28.2644 21.5344 28.5686L17.9581 33.3862ZM22.6156 34.4071L22.6157 40.4071C25.5945 40.4071 28.5745 39.9107 30.8555 38.1107L27.1386 33.4006L23.4218 28.6905C23.8969 28.3156 24.2238 28.2581 24.0966 28.2897C23.9657 28.3224 23.5215 28.4071 22.6156 28.4071L22.6156 34.4071ZM27.1386 33.4006L30.8557 38.1105C33.4468 36.0657 34.0259 33.2736 34.0259 31.2609L28.0259 31.2609L22.0259 31.2609C22.0259 31.2397 22.0242 30.8437 22.2436 30.2854C22.4924 29.652 22.9151 29.0904 23.4215 28.6907L27.1386 33.4006ZM28.0259 31.2609H34.0259V31.2563H28.0259H22.0259V31.2609H28.0259ZM28.0259 31.2563L34.0259 31.2635L34.0267 30.6144L28.0267 30.6072L22.0267 30.5999L22.0259 31.249L28.0259 31.2563ZM28.0267 30.6072L34.0266 30.5846C34.0131 26.9836 33.7444 21.351 32.9865 15.6149L27.0382 16.4009L21.0899 17.1869C21.7725 22.3533 22.0148 27.471 22.0267 30.6298L28.0267 30.6072ZM27.0382 16.4009L32.9865 15.6149C32.2263 9.86249 30.8909 3.29963 28.4224 -1.30631L23.134 1.52797L17.8457 4.36225C19.216 6.91913 20.3533 11.6123 21.0899 17.1869L27.0382 16.4009ZM23.134 1.52797L28.3846 -1.3757L28.1967 -1.71559L22.9461 1.18807L17.6955 4.09174L17.8834 4.43163L23.134 1.52797ZM22.9461 1.18807L28.1598 -1.78126C29.0838 -0.1589 29.0682 1.83334 28.1216 3.44019L22.9519 0.394728L17.7823 -2.65074C16.5476 -0.554835 16.5275 2.04189 17.7323 4.15741L22.9461 1.18807ZM22.9519 0.394728L28.1208 3.44157C27.1763 5.0438 25.4652 6 23.6461 6L23.6461 1.9855e-07L23.6461 -6C21.2557 -6 19.0157 -4.74321 17.7831 -2.65211L22.9519 0.394728ZM23.6461 1.9855e-07L23.646 6C25.1083 6.00003 28.5007 7.19143 32.1071 10.1809L35.9362 5.56159L39.7653 0.942276C35.1696 -2.86726 29.1142 -5.99991 23.6462 -6L23.6461 1.9855e-07ZM35.9362 5.56159L32.1071 10.1809C35.5656 13.0478 38.2324 16.7731 39.0648 20.5531L44.9244 19.2627L50.784 17.9723C49.2028 10.7919 44.5559 4.91339 39.7653 0.942299L35.9362 5.56159ZM44.9244 19.2627L39.0422 20.4456L39.0638 20.5529L44.946 19.3701L50.8283 18.1873L50.8067 18.0799L44.9244 19.2627ZM44.946 19.3701L39.0454 20.4575C38.8623 19.4638 39.2769 19.0363 39.2012 19.122C39.1698 19.1576 38.635 19.73 36.8621 20.0611L37.9634 25.9591L39.0647 31.8572C46.4761 30.4733 52.0812 24.9813 50.8467 18.2826L44.946 19.3701ZM37.9634 25.9591L31.9649 25.8263C31.9627 25.922 31.9551 26.0151 31.9425 26.1005C31.93 26.1859 31.9143 26.2502 31.9009 26.2937C31.8743 26.38 31.8707 26.3418 31.9423 26.259L36.4801 30.1845L41.0178 34.1099C43.4039 31.3516 43.9168 28.1304 43.9619 26.0919L37.9634 25.9591ZM36.4801 30.1845L31.9424 26.2589C32.0487 26.1361 32.1392 26.1234 32.0269 26.1587C31.8653 26.2093 31.3326 26.3289 30.2415 26.205L29.5645 32.1667L28.8876 38.1284C33.6286 38.6667 38.0457 37.5454 41.0177 34.11L36.4801 30.1845ZM29.5645 32.1667L23.6407 31.2139C23.6564 31.1159 23.7062 30.8957 23.8536 30.6241C24.0096 30.3365 24.2168 30.0994 24.4229 29.9368L28.1401 34.6466L31.8572 39.3565C34.1367 37.5575 35.1529 35.2053 35.4884 33.1194L29.5645 32.1667ZM28.1401 34.6466L24.4231 29.9367C24.6758 29.7372 24.7799 29.762 24.489 29.8345C24.1845 29.9103 23.5985 30 22.6156 30L22.6156 36L22.6157 42C25.7265 42 29.1518 41.4916 31.857 39.3566L28.1401 34.6466ZM37.8582 24.358L39.0242 30.2437C46.0174 28.8582 50.4059 23.6951 49.2124 18.3066L43.3544 19.6042L37.4964 20.9017C37.3831 20.3903 37.377 19.9777 37.3921 19.7064C37.4083 19.4168 37.4548 19.1754 37.5093 18.982C37.6206 18.5869 37.7857 18.3176 37.917 18.1577C38.2219 17.7868 38.1674 18.1802 36.6922 18.4724L37.8582 24.358ZM43.3544 19.6042L49.2141 18.3141C47.7319 11.5821 43.347 5.98807 38.734 2.16421L34.9049 6.7835L31.0758 11.4028C34.3548 14.1209 36.7609 17.5612 37.4947 20.8943L43.3544 19.6042ZM34.9049 6.7835L38.734 2.16419C35.8527 -0.224196 32.6949 -2.08475 29.6776 -3.2041L27.5907 2.42126L25.5037 8.04662C27.0971 8.63773 29.0967 9.76229 31.0758 11.4028L34.9049 6.7835ZM27.5907 2.42126L23.8241 7.0917C26.4493 9.20879 28.2854 12.1216 29.5564 15.274L35.1211 13.0303L40.6858 10.7866C38.91 6.38241 36.0417 1.5287 31.3572 -2.24918L27.5907 2.42126ZM35.1211 13.0303L29.5564 15.274C31.0332 18.9368 31.6271 22.6219 31.8953 25.0239L37.8582 24.358L43.8212 23.6922C43.4965 20.7847 42.7418 15.8858 40.6858 10.7866L35.1211 13.0303ZM7.14193 24.358L13.1049 25.0239C13.3731 22.622 13.9669 18.9368 15.4437 15.274L9.87903 13.0303L4.31432 10.7866C2.25836 15.8858 1.50364 20.7847 1.17899 23.6922L7.14193 24.358ZM9.87903 13.0303L15.4437 15.274C16.7148 12.1215 18.5508 9.2086 21.1757 7.09163L17.4091 2.42126L13.6424 -2.24912C8.95805 1.52883 6.08999 6.38274 4.31433 10.7866L9.87903 13.0303ZM17.4091 2.42126L15.322 -3.20405C12.3048 -2.08462 9.14713 -0.223972 6.26614 2.16419L10.0952 6.78349L13.9244 11.4028C15.9034 9.76228 17.903 8.63767 19.4962 8.04657L17.4091 2.42126ZM10.0952 6.78349L6.26613 2.1642C1.65326 5.988 -2.73137 11.5813 -4.21351 18.3133L1.64616 19.6034L7.50582 20.8935C8.23961 17.5605 10.6453 14.1209 13.9244 11.4028L10.0952 6.78349ZM1.64616 19.6034L-4.21186 18.3059C-5.40506 23.6928 -1.01909 28.8578 5.97588 30.2436L7.14193 24.358L8.30798 18.4724C6.83331 18.1803 6.77912 17.7869 7.08393 18.158C7.21528 18.3179 7.3802 18.5871 7.49138 18.982C7.54579 19.1753 7.59229 19.4165 7.60841 19.706C7.62351 19.9771 7.61744 20.3896 7.50417 20.901L1.64616 19.6034ZM9.7405 29.1477L5.20289 33.0732C7.74321 36.0096 11.6137 37.0745 16.0934 36.5276L15.3662 30.5718L14.639 24.616C13.6772 24.7335 13.3713 24.613 13.468 24.6429C13.5223 24.6597 13.6508 24.7083 13.8166 24.8165C13.9829 24.925 14.1409 25.0635 14.2781 25.2221L9.7405 29.1477ZM15.3662 30.5718L21.3661 30.5968C21.3795 27.3734 21.6265 22.2032 22.3167 16.98L16.3684 16.194L10.4201 15.408C9.65487 21.1991 9.38148 26.8825 9.36622 30.5468L15.3662 30.5718ZM16.3684 16.194L22.3167 16.98C22.92 12.4141 23.8215 8.13323 25.0446 5.11038L19.4826 2.85993L13.9206 0.609487C12.1273 5.0417 11.0675 10.5088 10.4201 15.408L16.3684 16.194ZM19.4826 2.85993L16.0391 -2.05352C10.8058 1.61414 7.68729 6.71455 5.80708 11.3777L11.3718 13.6214L16.9365 15.8651C18.2646 12.5712 20.1838 9.69531 22.9261 7.77339L19.4826 2.85993ZM11.3718 13.6214L5.80707 11.3778C3.606 16.8368 2.94158 22.0959 2.682 24.769L8.65391 25.3489L14.6258 25.9289C14.8451 23.6711 15.3716 19.7462 16.9365 15.8651L11.3718 13.6214ZM8.65391 25.3489L2.66598 24.9684C2.54775 26.8291 2.76629 30.2566 5.20277 33.0731L9.7405 29.1477L14.2782 25.2222C14.5711 25.5608 14.6388 25.8362 14.6439 25.8571C14.6485 25.8763 14.6449 25.8677 14.6423 25.8321C14.6398 25.7968 14.6399 25.7593 14.6418 25.7295L8.65391 25.3489ZM29.6336 30.5718L28.9062 36.5275C33.3864 37.0747 37.2569 36.0096 39.7972 33.0733L35.2597 29.1477L30.7221 25.2221C30.8592 25.0635 31.0172 24.925 31.1835 24.8166C31.3492 24.7084 31.4777 24.6598 31.532 24.643C31.6288 24.613 31.3229 24.7335 30.361 24.6161L29.6336 30.5718ZM35.2597 29.1477L39.7973 33.0732C42.2345 30.2558 42.4519 26.8276 42.3338 24.9684L36.3459 25.3489L30.3579 25.7295C30.3599 25.7597 30.36 25.7974 30.3574 25.8328C30.3548 25.8686 30.3513 25.8772 30.3559 25.8579C30.361 25.8369 30.4288 25.5611 30.722 25.2222L35.2597 29.1477ZM36.3459 25.3489L42.3178 24.769C42.0583 22.0968 41.3947 16.8372 39.1935 11.3778L33.6288 13.6214L28.0641 15.8651C29.6287 19.7457 30.1546 23.6702 30.3739 25.9289L36.3459 25.3489ZM33.6288 13.6214L39.1935 11.3777C37.3129 6.7137 34.1935 1.61416 28.9607 -2.05317L25.5172 2.86032L22.0737 7.77381C24.8166 9.69609 26.7363 12.572 28.0641 15.8651L33.6288 13.6214ZM25.5172 2.86032L19.9552 5.11073C21.1784 8.13409 22.0807 12.4152 22.6839 16.98L28.6322 16.194L34.5804 15.408C33.9329 10.5078 32.8722 5.0416 31.0791 0.609913L25.5172 2.86032ZM28.6322 16.194L22.6839 16.98C23.374 22.2026 23.6202 27.3727 23.6336 30.5968L29.6336 30.5718L35.6335 30.5468C35.6183 26.8832 35.3458 21.1997 34.5804 15.408L28.6322 16.194Z" fill="white" mask="url(#path-1-inside-1_1340_281)"/>
</svg>
