<svg width="732" height="587" viewBox="0 0 732 587" fill="none" xmlns="http://www.w3.org/2000/svg">
<path d="M455.217 22.2744C436.105 8.06986 406.54 0.484163 363.851 0.48416C321.228 0.4844 292.363 8.04153 274.053 22.5085C259.756 33.8056 253.258 48.1782 250.899 62.8676C195.168 56.5316 159.58 70.7173 138.489 95.1255C120.144 116.357 114.838 143.067 114.378 163.888C23.6146 180.856 -5.66452 235.581 0.876981 271.118L1.22781 272.865C20.8449 362.05 80.2858 440.195 147.329 495.836C213.991 551.159 290.775 586.344 347.1 586.345C354.354 586.443 360.022 586.491 365.73 586.49C371.375 586.49 377.059 586.441 384.351 586.345C440.677 586.345 517.466 551.161 584.129 495.836C651.172 440.196 710.613 362.049 730.23 272.865C738.076 237.403 709.343 181.139 617.087 163.888C616.626 143.067 611.309 116.357 592.963 95.1256C571.852 70.695 536.221 56.506 480.4 62.8866C477.675 47.8374 470.261 33.4551 455.217 22.2744Z" fill="black"/>
</svg>
